<svg xmlns="http://www.w3.org/2000/svg" width="480pt" height="290pt" viewBox="0 0 480 290" version="1.1" xmlns:xlink="http://www.w3.org/1999/xlink">
  <g id="surface2" transform="matrix(1,0,0,1,-0.5,0)" data-tpl_matrix="1,0,0,1,-0.5,0">
    <path style="stroke:none;fill-rule:evenodd;fill:rgb(59.215686%,50.588235%,19.215686%);fill-opacity:1" d="M 254.449219 124.101562 C 254.351562 128.132812 252.949219 131.500000 250.250000 134.199219 C 247.550781 136.898438 244.183594 138.300781 240.148438 138.398438 C 236.082031 138.300781 232.714844 136.898438 230.050781 134.199219 C 227.351562 131.500000 225.949219 128.132812 225.851562 124.101562 C 225.949219 120.035156 227.351562 116.667969 230.050781 114.000000 C 232.714844 111.300781 236.082031 109.898438 240.148438 109.800781 C 244.183594 109.898438 247.550781 111.300781 250.250000 114.000000 C 252.949219 116.667969 254.351562 120.035156 254.449219 124.101562 "/>
    <path style="stroke:none;fill-rule:evenodd;fill:rgb(15.294118%,27.843137%,53.333333%);fill-opacity:1" d="M 163.500000 125.101562 C 163.566406 124.699219 166.667969 121.816406 172.800781 116.449219 C 178.898438 111.117188 187.617188 105.765625 198.949219 100.398438 C 210.316406 95.066406 223.851562 92.183594 239.550781 91.750000 C 255.285156 92.183594 268.917969 95.066406 280.449219 100.398438 C 291.984375 105.765625 300.898438 111.132812 307.199219 116.500000 C 313.535156 121.832031 316.750000 124.699219 316.851562 125.101562 C 316.816406 124.632812 313.898438 121.234375 308.101562 114.898438 C 302.265625 108.601562 293.617188 102.300781 282.148438 96.000000 C 270.683594 89.699219 256.484375 86.300781 239.550781 85.800781 C 222.582031 86.300781 208.464844 89.699219 197.199219 96.000000 C 185.933594 102.300781 177.500000 108.617188 171.898438 114.949219 C 166.300781 121.250000 163.500000 124.632812 163.500000 125.101562 "/>
  </g>
  <g id="surface4">
    <text style="fill:rgb(39,71,136)" font-family="Palermo" font-size="50" transform="matrix(1,0,0,1,67.4,189.1)" xml:space="preserve"><![CDATA[Licorne Capital ]]></text>
  </g>
</svg>
