<?xml version="1.0" encoding="UTF-8" standalone="no"?>
<!DOCTYPE svg PUBLIC "-//W3C//DTD SVG 1.1//EN" "http://www.w3.org/Graphics/SVG/1.1/DTD/svg11.dtd">
<svg width="100%" height="100%" viewBox="0 0 1024 1024" version="1.1" xmlns="http://www.w3.org/2000/svg" xmlns:xlink="http://www.w3.org/1999/xlink" xml:space="preserve" xmlns:serif="http://www.serif.com/" style="fill-rule:evenodd;clip-rule:evenodd;stroke-linecap:round;">
    <g transform="matrix(4.67822,0,0,4.67822,-30.4839,253.139)">
        <g id="droite">
            <g>
                <g transform="matrix(1,0,0,1,15.7227,5.33333)">
                    <path d="M50,10C71.943,10 90,28.057 90,50C90,71.943 71.943,90 50,90C28.057,90 10,71.943 10,50C10,28.057 28.057,10 50,10" style="fill:none;stroke:rgb(204,204,204);stroke-width:12px;"/>
                </g>
                <g transform="matrix(1,0,0,1,15.7227,5.33333)">
                    <path d="M50,10C71.943,10 90,28.057 90,50C90,71.943 71.943,90 50,90C28.057,90 10,71.943 10,50C10,28.057 28.057,10 50,10" style="fill:none;stroke:rgb(172,144,77);stroke-width:12px;"/>
                </g>
                <g id="value" transform="matrix(1,0,0,1,165.723,62.3333)">
                    <text x="-41.138px" y="0px" style="font-family:'Arial-BoldMT', 'Arial', sans-serif;font-weight:700;font-size:20px;">{{value}}</text>
                </g>
            </g>
        </g>
    </g>
    <g transform="matrix(4.67822,0,0,4.67822,-30.4839,253.139)">
        <g id="gauche">
            <g>
                <g transform="matrix(1,0,0,1,114.051,5.33333)">
                    <path d="M50,10C71.943,10 90,28.057 90,50C90,71.943 71.943,90 50,90C28.057,90 10,71.943 10,50C10,28.057 28.057,10 50,10" style="fill:none;stroke:rgb(204,204,204);stroke-width:12px;"/>
                </g>
                <g transform="matrix(1,0,0,1,114.051,5.33333)">
                    <path d="M50,10C71.943,10 90,28.057 90,50C90,71.943 71.943,90 50,90C28.057,90 10,71.943 10,50C10,28.057 28.057,10 50,10" style="fill:none;stroke:rgb(172,144,77);stroke-width:12px;"/>
                </g>
                <g id="value1" serif:id="value" transform="matrix(1,0,0,1,65.2571,62.3333)">
                    <text x="-41.138px" y="0px" style="font-family:'Arial-BoldMT', 'Arial', sans-serif;font-weight:700;font-size:20px;">{{value}}</text>
                </g>
            </g>
        </g>
    </g>
    <g transform="matrix(4.67822,0,0,4.67822,-30.4839,253.139)">
        <g id="bas">
            <g>
                <g transform="matrix(1,0,0,1,65.9595,-13.9048)">
                    <path d="M50,10C71.943,10 90,28.057 90,50C90,71.943 71.943,90 50,90C28.057,90 10,71.943 10,50C10,28.057 28.057,10 50,10" style="fill:none;stroke:rgb(204,204,204);stroke-width:12px;"/>
                </g>
                <g transform="matrix(1,0,0,1,65.9595,-13.9048)">
                    <path d="M50,10C71.943,10 90,28.057 90,50C90,71.943 71.943,90 50,90C28.057,90 10,71.943 10,50C10,28.057 28.057,10 50,10" style="fill:none;stroke:rgb(172,144,77);stroke-width:12px;"/>
                </g>
                <g id="value2" serif:id="value" transform="matrix(1,0,0,1,115.999,122.185)">
                    <text x="-41.138px" y="0px" style="font-family:'Arial-BoldMT', 'Arial', sans-serif;font-weight:700;font-size:20px;">{{value}}</text>
                </g>
            </g>
        </g>
    </g>
    <g transform="matrix(4.67822,0,0,4.67822,-30.4839,253.139)">
        <g id="haut">
            <g>
                <g transform="matrix(1,0,0,1,65.9555,26.709)">
                    <path d="M50,10C71.943,10 90,28.057 90,50C90,71.943 71.943,90 50,90C28.057,90 10,71.943 10,50C10,28.057 28.057,10 50,10" style="fill:none;stroke:rgb(204,204,204);stroke-width:12px;"/>
                </g>
                <g transform="matrix(1,0,0,1,65.9555,26.709)">
                    <path d="M50,10C71.943,10 90,28.057 90,50C90,71.943 71.943,90 50,90C28.057,90 10,71.943 10,50C10,28.057 28.057,10 50,10" style="fill:none;stroke:rgb(172,144,77);stroke-width:12px;"/>
                </g>
                <g id="value3" serif:id="value" transform="matrix(1,0,0,1,115.276,4.61904)">
                    <text x="-41.138px" y="0px" style="font-family:'Arial-BoldMT', 'Arial', sans-serif;font-weight:700;font-size:20px;">{{value}}</text>
                </g>
            </g>
        </g>
    </g>
</svg>
